<svg width="703" height="200" viewBox="0 0 703 200" fill="none" xmlns="http://www.w3.org/2000/svg">
    <path d="M7.78313 112.975H0V1.32919H7.78313V112.975Z" fill="black" />
    <path
        d="M65.2645 114.301C57.4203 114.301 51.1075 113.61 46.326 112.23C42.0909 111.081 38.0046 109.44 34.1504 107.342L36.4719 100.885C40.4441 102.839 44.5924 104.412 48.8613 105.583C53.3903 106.854 58.858 107.487 65.2645 107.483C69.1195 107.513 72.962 107.041 76.6949 106.078C79.9622 105.265 83.0315 103.8 85.7182 101.771C88.2294 99.8072 90.2445 97.2815 91.6013 94.397C93.039 91.4157 93.7579 87.8275 93.7579 83.6326C93.7579 79.3235 92.984 75.8454 91.4364 73.198C89.8895 70.5473 87.7323 68.3042 85.1439 66.6551C82.3023 64.8557 79.2381 63.4345 76.029 62.4275C72.6078 61.3279 69.0747 60.1692 65.4295 58.9514C61.6703 57.7296 57.9152 56.3204 54.1641 54.7238C50.5524 53.2026 47.1636 51.1988 44.0901 48.7674C41.0724 46.3799 38.5772 43.3981 36.759 40.0068C34.8774 36.5286 33.9386 32.3601 33.9427 27.5012C33.9266 23.86 34.5469 20.244 35.7754 16.8162C36.9857 13.4542 39.0015 10.4399 41.6464 8.03731C44.6753 5.3688 48.2299 3.36469 52.0809 2.15416C56.3329 0.724612 61.4402 0.00778703 67.4028 0.00371423C72.6884 -0.0563251 77.9572 0.61178 83.0606 1.9892C87.147 3.0823 91.1134 4.5825 94.9003 6.46726L92.7499 12.2649C88.9449 10.4753 84.9422 9.14034 80.8247 8.28779C76.4726 7.31326 72.0276 6.81345 67.5677 6.79714C58.294 6.79714 51.6146 8.7297 47.5295 12.5948C43.4445 16.4599 41.4081 21.5936 41.4203 27.9961C41.4203 31.6616 42.0557 34.7264 43.3264 37.1904C44.6283 39.7112 46.4652 41.9172 48.7086 43.654C51.252 45.6041 54.0363 47.2181 56.9927 48.4558C60.1939 49.8365 63.7841 51.1886 67.7632 52.5123C72.0641 53.9541 76.2326 55.4447 80.2687 56.9842C84.066 58.413 87.6585 60.3356 90.9538 62.7024C94.0047 64.9284 96.5457 67.7797 98.407 71.0659C100.285 74.3771 101.223 78.5741 101.223 83.657C101.31 88.1802 100.433 92.6701 98.6513 96.8284C97.0055 100.555 94.5094 103.844 91.3631 106.432C88.0098 109.132 84.1474 111.128 80.006 112.303C75.2151 113.68 70.2492 114.353 65.2645 114.301Z"
        fill="black" />
    <path
        d="M190.326 112.975H198.94L169.94 65.4332C178.554 64.0036 185.429 60.554 190.564 55.0842C195.7 49.6144 198.27 42.4178 198.274 33.4943C198.324 29.0184 197.509 24.5749 195.873 20.4084C194.343 16.5371 191.965 13.0574 188.915 10.2243C185.682 7.29193 181.875 5.06379 177.735 3.6814C172.878 2.0648 167.782 1.27992 162.664 1.35989H123.736V112.975H131.519V66.0991V59.1529V8.28772H162.676C171.84 8.28772 178.763 10.5278 183.447 15.0078C188.131 19.4879 190.479 25.6501 190.491 33.4943C190.491 41.5584 187.923 47.8529 182.787 52.3778C177.652 56.9027 170.657 59.1611 161.802 59.1529V66.1235"
        fill="black" />
    <path d="M232.095 74.8659C232.205 74.591 232.315 74.3161 232.443 74.0473L232.095 74.8659Z"
        fill="black" />
    <path
        d="M259.898 1.32919H252.445L210.041 112.975H217.983L247.808 33.4941L255.921 9.66825H256.257L264.199 33.1887L279.606 73.4422C279.757 73.7556 279.887 74.0779 279.997 74.4075C280.223 75.0184 280.443 75.6598 280.694 76.2402C280.999 76.9611 281.347 77.6575 281.622 78.3906C281.763 78.7572 281.891 79.1299 282.038 79.4964C282.111 79.6797 282.166 79.863 282.221 80.0401H282.276L294.366 113.03H302.308L259.898 1.32919Z"
        fill="black" />
    <path d="M328.809 8.3059V8.28757H386.285V1.32919H321.02V8.3059H328.809Z" fill="black" />
    <path d="M328.809 60.5459V60.5215H386.285V53.5692H321.02V60.5459H328.809Z" fill="black" />
    <path d="M328.809 106.188V106.182H321.02V112.975H387.281V106.188H328.809Z" fill="black" />
    <path d="M410.141 1.32919H417.924V105.851H473.414V112.975H410.141V1.32919Z" fill="black" />
    <path d="M548.099 112.975H540.31V1.32919H548.099V112.975Z" fill="black" />
    <path
        d="M643.703 8.44641L608.588 8.28147V112.975H600.798V8.28756L565.683 8.45252V1.32919H643.703V8.44641Z"
        fill="black" />
    <path
        d="M279.529 129.34C280.68 132.628 280.43 135.916 278.781 139.205C278.627 139.518 278.437 139.801 278.211 140.054C277.998 140.307 277.695 140.475 277.304 140.56C277.043 140.608 276.811 140.548 276.609 140.379C276.42 140.198 276.348 139.994 276.396 139.765C276.55 139.307 276.704 138.867 276.859 138.446C276.942 138.229 277.037 138.018 277.143 137.813C277.95 135.537 278.093 133.284 277.571 131.056C277.001 128.515 275.5 126.846 273.067 126.051C271.655 125.618 270.231 125.383 268.796 125.347C267.36 125.311 265.9 125.425 264.417 125.69C259.896 126.533 255.482 127.87 251.174 129.701C244.541 132.435 238.222 135.838 232.218 139.909C227.056 143.414 222.411 147.54 218.281 152.285C216.845 153.924 215.546 155.664 214.383 157.507C213.22 159.35 212.289 161.319 211.589 163.415C210.912 165.499 210.586 167.601 210.61 169.721C210.693 172.009 211.262 173.96 212.319 175.574C213.375 177.189 214.793 178.363 216.573 179.098C218.364 179.844 220.382 180.031 222.624 179.658C225.496 179.164 228.213 178.122 230.776 176.532C232.295 175.629 233.713 174.611 235.03 173.479C236.348 172.334 237.617 171.124 238.839 169.847C241.794 166.715 244.434 163.337 246.76 159.711C248.113 157.567 249.234 155.303 250.124 152.918C250.172 152.834 250.207 152.737 250.231 152.629C250.445 152.075 250.682 151.533 250.943 151.003C251.358 150.268 252.011 149.949 252.901 150.045C253.447 150.105 253.749 150.425 253.809 151.003C253.809 151.858 253.648 152.695 253.328 153.514C251.346 159.26 249.193 164.945 246.867 170.57C246.819 170.702 246.766 170.835 246.707 170.967C246.576 171.232 246.463 171.497 246.369 171.762C246.333 171.835 246.303 171.913 246.28 171.997C246.149 172.31 246.072 172.642 246.048 172.991C246.048 173.123 246.09 173.226 246.173 173.298C246.268 173.358 246.38 173.412 246.511 173.461C246.677 173.521 246.808 173.599 246.902 173.695C246.938 173.695 246.968 173.714 246.991 173.75C247.063 173.822 247.122 173.9 247.169 173.985C247.229 174.057 247.205 174.159 247.098 174.292C247.027 174.424 246.914 174.533 246.76 174.617C246.594 174.701 246.422 174.743 246.244 174.743C245.746 174.683 245.354 174.792 245.069 175.069C244.784 175.346 244.547 175.701 244.357 176.135C243.657 177.64 242.939 179.134 242.203 180.615C240.696 183.747 239 186.794 237.113 189.757C235.938 191.612 234.621 193.365 233.161 195.015C231.654 196.762 229.869 198.123 227.804 199.098C226.677 199.628 225.526 199.923 224.351 199.984C222.998 200.08 221.895 199.749 221.04 198.99C220.198 198.243 219.723 197.183 219.616 195.81C219.533 194.642 219.687 193.473 220.079 192.305C220.898 190.053 222.102 188.041 223.692 186.27C227.739 181.573 232.568 178.074 238.181 175.773C239.118 175.4 240.056 175.069 240.993 174.78C241.1 174.719 241.219 174.677 241.349 174.653C242.049 174.448 242.559 174.015 242.88 173.352C243.165 172.654 243.461 171.961 243.77 171.274C244.636 169.444 245.372 167.565 245.977 165.637C246.001 165.577 246.001 165.523 245.977 165.475C245.941 165.451 245.924 165.427 245.924 165.402C245.639 165.451 245.413 165.571 245.247 165.764C245.081 165.945 244.915 166.137 244.749 166.342C244.678 166.474 244.589 166.607 244.482 166.739C242.476 169.185 240.311 171.479 237.985 173.623C235.161 176.225 232.028 178.236 228.587 179.658C226.629 180.453 224.653 180.977 222.66 181.23C220.678 181.483 218.697 181.41 216.715 181.013C214.425 180.543 212.497 179.423 210.93 177.652C209.364 175.894 208.421 173.677 208.1 171.003C207.922 169.329 207.981 167.679 208.278 166.053C208.575 164.427 209.067 162.819 209.755 161.229C210.539 159.446 211.458 157.76 212.514 156.17C213.57 154.58 214.739 153.044 216.021 151.563C220.53 146.371 225.656 141.909 231.399 138.175C235.505 135.465 239.729 133.056 244.072 130.948C248.415 128.84 252.901 127.087 257.529 125.69C259.558 125.052 261.617 124.57 263.705 124.245C265.793 123.907 267.882 123.781 269.97 123.865C272.166 123.938 274.218 124.449 276.129 125.401C277.79 126.256 278.923 127.569 279.529 129.34ZM241.118 176.93C241.165 176.737 241.136 176.58 241.029 176.46C240.934 176.339 240.791 176.309 240.602 176.369C240.186 176.502 239.783 176.646 239.391 176.803C234.585 178.947 230.355 181.97 226.7 185.873C225.371 187.27 224.238 188.818 223.301 190.516C222.589 191.709 222.156 193.112 222.001 194.726C222.001 194.75 222.001 194.804 222.001 194.889C221.978 195.105 221.978 195.383 222.001 195.72C222.132 196.936 222.541 197.749 223.229 198.159C223.93 198.58 224.855 198.55 226.006 198.069C227.667 197.298 229.127 196.214 230.385 194.816C231.951 193.142 233.334 191.335 234.532 189.396C235.73 187.517 236.846 185.59 237.878 183.615C238.911 181.639 239.896 179.646 240.833 177.634C240.94 177.393 241.035 177.17 241.118 176.966C241.118 176.942 241.118 176.93 241.118 176.93Z"
        fill="black" />
    <path
        d="M262.619 165.258C262.512 166.089 262.127 166.631 261.462 166.884C260.798 167.137 260.578 166.806 260.804 165.89C261.041 164.975 260.638 164.746 259.593 165.204C258.549 165.649 257.689 166.216 257.012 166.902C255.968 167.986 255.043 169.155 254.236 170.407C254.153 170.516 254.087 170.606 254.04 170.678C253.803 171.028 253.565 171.359 253.328 171.672C253.174 171.889 252.996 172.027 252.794 172.087C252.58 172.136 252.367 172.142 252.153 172.106C251.952 172.081 251.797 172.003 251.69 171.871C251.584 171.738 251.572 171.582 251.655 171.401C251.785 171.076 251.94 170.744 252.118 170.407C253.186 168.396 254.271 166.378 255.375 164.355C255.399 164.33 255.411 164.306 255.411 164.282C255.565 163.969 255.749 163.68 255.962 163.415C256.2 163.15 256.473 163.042 256.781 163.09C257.09 163.138 257.297 163.325 257.404 163.65C257.535 164.072 257.647 164.312 257.742 164.373C257.837 164.421 258.051 164.379 258.383 164.246C259.095 163.981 259.789 163.794 260.466 163.686C261.142 163.578 261.694 163.608 262.121 163.776C262.56 163.933 262.726 164.427 262.619 165.258Z"
        fill="black" />
    <path
        d="M265.805 172.069H265.752C264.031 172.045 262.898 171.66 262.352 170.913C261.806 170.154 261.83 169.148 262.423 167.896C262.922 166.944 263.551 166.113 264.31 165.402C264.571 165.162 264.838 164.969 265.111 164.824C265.384 164.68 265.693 164.608 266.037 164.608C266.238 164.571 266.47 164.608 266.731 164.716C266.814 164.74 266.897 164.77 266.98 164.806C267.182 164.77 267.378 164.704 267.567 164.608C267.615 164.571 267.68 164.541 267.763 164.517C268.155 164.361 268.57 164.294 269.009 164.318C269.187 164.318 269.371 164.318 269.561 164.318C270.261 164.427 270.789 164.728 271.145 165.222C271.501 165.704 271.626 166.294 271.519 166.992C271.46 167.414 271.329 167.811 271.127 168.185C269.763 170.666 268.024 171.961 265.912 172.069H265.805ZM268.618 165.601C267.68 165.565 266.844 165.842 266.108 166.432C265.384 167.01 264.844 167.679 264.488 168.438C264.132 169.197 264.031 169.823 264.186 170.317C264.352 170.799 264.85 170.931 265.681 170.714C266.618 170.425 267.443 169.883 268.155 169.088C268.879 168.293 269.318 167.54 269.472 166.83C269.638 166.107 269.353 165.698 268.618 165.601Z"
        fill="black" />
    <path
        d="M288.642 160.705C288.772 160.705 288.897 160.765 289.016 160.886C289.134 161.006 289.17 161.133 289.122 161.265C289.039 161.47 288.944 161.669 288.838 161.861C287.141 164.8 285.183 167.553 282.964 170.118C282.394 170.781 281.771 171.407 281.095 171.997C280.774 172.286 280.407 172.509 279.991 172.666C279.232 172.991 278.644 172.997 278.229 172.684C277.814 172.358 277.63 171.786 277.677 170.967C277.713 170.835 277.743 170.702 277.766 170.57C277.79 170.377 277.808 170.172 277.82 169.955C277.832 169.727 277.802 169.48 277.731 169.215C277.41 169.504 277.108 169.781 276.823 170.046C276.218 170.624 275.63 171.178 275.061 171.708C274.432 172.298 273.69 172.527 272.836 172.395C272.255 172.286 271.91 171.955 271.804 171.401C271.756 170.943 271.756 170.491 271.804 170.046C272.065 168.058 272.551 166.137 273.263 164.282C273.394 163.993 273.56 163.752 273.762 163.56C274.023 163.271 274.349 163.192 274.741 163.325C275.132 163.481 275.292 163.776 275.221 164.21C275.138 164.571 275.043 164.939 274.936 165.312C274.913 165.445 274.889 165.577 274.865 165.71C274.557 166.854 274.343 167.739 274.224 168.366C274.106 168.98 274.052 169.401 274.064 169.63C274.076 169.859 274.135 169.931 274.242 169.847C274.681 169.63 275.061 169.347 275.381 168.998C275.714 168.637 276.022 168.269 276.307 167.896C276.544 167.559 276.805 167.227 277.09 166.902C277.387 166.589 277.666 166.27 277.927 165.945C278.152 165.631 278.395 165.33 278.656 165.041C278.894 164.776 279.173 164.547 279.493 164.355C279.908 164.15 280.324 164.18 280.739 164.445C280.917 164.577 281.018 164.728 281.041 164.897C281.077 165.065 281.065 165.246 281.006 165.439C280.852 166.149 280.697 166.866 280.543 167.589C280.46 167.95 280.371 168.305 280.276 168.655C280.217 168.944 280.163 169.233 280.116 169.522C280.092 169.63 280.092 169.739 280.116 169.847C280.14 169.955 280.205 170.022 280.312 170.046C280.383 170.07 280.448 170.07 280.507 170.046C280.579 170.022 280.644 169.98 280.703 169.919C281.036 169.63 281.332 169.317 281.593 168.98C282.151 168.257 282.703 167.54 283.249 166.83C283.664 166.24 284.091 165.667 284.53 165.113C285.444 163.873 286.387 162.656 287.36 161.464C287.669 161.006 288.096 160.753 288.642 160.705Z"
        fill="black" />
    <path
        d="M314.362 166.938C314.516 167.239 314.261 167.709 313.596 168.347C312.932 168.974 311.763 169.739 310.09 170.642C309.461 170.907 309.004 171.118 308.719 171.274C308.435 171.431 308.227 171.63 308.096 171.871C307.966 172.112 307.823 172.485 307.669 172.991C307.539 173.364 307.367 173.864 307.153 174.49C306.868 175.261 306.583 176.056 306.299 176.875C305.776 178.55 305.154 180.2 304.43 181.826C303.718 183.464 302.792 184.891 301.653 186.108C300.514 187.324 299.048 188.131 297.257 188.529C295.453 188.878 293.709 188.932 292.024 188.692C290.339 188.451 288.689 187.975 287.075 187.264C286.423 186.963 285.835 186.566 285.313 186.072C284.447 185.168 284.382 184.157 285.117 183.036C285.509 182.482 285.966 181.982 286.488 181.537C287.532 180.682 288.624 179.899 289.763 179.188C291.887 177.887 294.059 176.695 296.278 175.611C298.497 174.527 300.739 173.479 303.006 172.467C303.16 172.395 303.332 172.316 303.522 172.232C304.139 171.943 304.774 171.654 305.426 171.365C305.877 171.196 306.18 170.889 306.334 170.443C306.382 170.287 306.394 170.142 306.37 170.01C306.346 169.925 306.299 169.877 306.227 169.865C306.168 169.853 306.097 169.871 306.014 169.919C305.788 170.052 305.557 170.202 305.32 170.371C305.189 170.443 305.047 170.534 304.892 170.642C304.074 171.124 303.225 171.335 302.347 171.274C300.959 171.274 300.253 170.642 300.229 169.377C300.205 168.341 300.377 167.36 300.745 166.432C301.125 165.505 301.659 164.632 302.347 163.813C302.418 163.728 302.519 163.662 302.65 163.614C302.78 163.554 302.911 163.511 303.041 163.487C303.065 163.487 303.095 163.475 303.13 163.451C303.391 163.427 303.593 163.493 303.736 163.65C303.878 163.807 303.908 164.005 303.825 164.246C303.67 164.583 303.516 164.927 303.362 165.276C303.231 165.541 303.101 165.806 302.97 166.071C302.448 167.107 302.211 168.191 302.258 169.323C302.282 169.564 302.383 169.739 302.561 169.847C302.751 169.955 302.964 169.955 303.202 169.847C303.902 169.558 304.513 169.148 305.035 168.618C306.447 167.318 307.61 165.818 308.524 164.12C308.654 163.879 308.802 163.674 308.968 163.505C309.146 163.337 309.378 163.24 309.663 163.216C310.031 163.18 310.309 163.264 310.499 163.469C310.701 163.662 310.76 163.921 310.677 164.246C310.345 165.33 309.995 166.402 309.627 167.462C309.603 167.546 309.574 167.625 309.538 167.697C309.443 167.938 309.354 168.191 309.271 168.456C309.188 168.721 309.146 168.956 309.146 169.161C309.146 169.353 309.23 169.45 309.396 169.45C310.048 169.317 310.998 168.787 312.244 167.86C313.501 166.932 314.207 166.625 314.362 166.938ZM305.035 174.183C305.035 174.123 305.053 174.069 305.088 174.021C305.159 173.888 305.201 173.744 305.213 173.587C305.225 173.43 305.183 173.268 305.088 173.099C305.005 173.099 304.94 173.099 304.892 173.099C304.726 173.135 304.578 173.178 304.447 173.226C304.186 173.334 303.925 173.455 303.664 173.587C301.576 174.563 299.487 175.568 297.399 176.604C295.311 177.64 293.264 178.742 291.258 179.911C290.036 180.621 288.885 181.452 287.805 182.404C286.927 183.199 286.506 183.892 286.541 184.482C286.577 185.084 287.093 185.626 288.09 186.108C290.356 187.3 292.795 187.788 295.405 187.571C297.185 187.391 298.633 186.71 299.748 185.53C300.852 184.349 301.754 182.934 302.454 181.284C303.166 179.646 303.783 178.008 304.305 176.369C304.531 175.599 304.774 174.87 305.035 174.183Z"
        fill="black" />
    <path
        d="M316.177 172.069H316.124C314.403 172.045 313.27 171.66 312.724 170.913C312.178 170.154 312.202 169.148 312.795 167.896C313.294 166.944 313.923 166.113 314.682 165.402C314.943 165.162 315.21 164.969 315.483 164.824C315.756 164.68 316.064 164.608 316.409 164.608C316.61 164.571 316.842 164.608 317.103 164.716C317.186 164.74 317.269 164.77 317.352 164.806C317.554 164.77 317.749 164.704 317.939 164.608C317.987 164.571 318.052 164.541 318.135 164.517C318.527 164.361 318.942 164.294 319.381 164.318C319.559 164.318 319.743 164.318 319.933 164.318C320.633 164.427 321.161 164.728 321.517 165.222C321.873 165.704 321.998 166.294 321.891 166.992C321.831 167.414 321.701 167.811 321.499 168.185C320.135 170.666 318.396 171.961 316.284 172.069H316.177ZM318.989 165.601C318.052 165.565 317.215 165.842 316.48 166.432C315.756 167.01 315.216 167.679 314.86 168.438C314.504 169.197 314.403 169.823 314.557 170.317C314.724 170.799 315.222 170.931 316.053 170.714C316.99 170.425 317.815 169.883 318.527 169.088C319.251 168.293 319.69 167.54 319.844 166.83C320.01 166.107 319.725 165.698 318.989 165.601Z"
        fill="black" />
    <path
        d="M323.261 173.153C322.134 173.153 321.57 172.557 321.57 171.365C321.57 169.907 322.502 167.336 324.365 163.65C324.436 163.493 324.567 163.415 324.756 163.415C325.504 163.415 325.878 163.716 325.878 164.318C325.878 164.535 325.813 164.8 325.682 165.113C325.635 165.198 325.012 166.788 323.813 169.883C323.623 170.389 323.528 170.763 323.528 171.003C323.528 171.268 323.647 171.401 323.884 171.401C324.75 171.401 327.023 169.215 330.701 164.842C331.176 164.252 331.645 163.957 332.108 163.957C332.784 163.957 333.122 164.21 333.122 164.716C333.122 164.909 332.914 165.637 332.499 166.902C331.93 168.625 331.645 169.618 331.645 169.883C331.645 170.281 331.775 170.479 332.036 170.479C332.689 170.479 334.593 169.299 337.75 166.938C337.928 166.782 338.082 166.703 338.213 166.703C338.509 166.703 338.658 166.956 338.658 167.462C338.658 167.595 338.616 167.703 338.533 167.787C336.86 169.245 335.436 170.353 334.261 171.112C333.193 171.81 332.244 172.16 331.413 172.16H331.164C329.942 171.895 329.331 170.925 329.331 169.251C328.026 170.419 326.94 171.365 326.074 172.087C325.219 172.798 324.282 173.153 323.261 173.153Z"
        fill="black" />
    <path
        d="M345.991 165.258C345.884 166.089 345.499 166.631 344.834 166.884C344.169 167.137 343.95 166.806 344.175 165.89C344.413 164.975 344.009 164.746 342.965 165.204C341.921 165.649 341.061 166.216 340.384 166.902C339.34 167.986 338.414 169.155 337.607 170.407C337.524 170.516 337.459 170.606 337.412 170.678C337.174 171.028 336.937 171.359 336.7 171.672C336.545 171.889 336.367 172.027 336.166 172.087C335.952 172.136 335.739 172.142 335.525 172.106C335.323 172.081 335.169 172.003 335.062 171.871C334.955 171.738 334.944 171.582 335.027 171.401C335.157 171.076 335.311 170.744 335.489 170.407C336.557 168.396 337.643 166.378 338.747 164.355C338.77 164.33 338.782 164.306 338.782 164.282C338.937 163.969 339.12 163.68 339.334 163.415C339.571 163.15 339.844 163.042 340.153 163.09C340.461 163.138 340.669 163.325 340.776 163.65C340.906 164.072 341.019 164.312 341.114 164.373C341.209 164.421 341.422 164.379 341.755 164.246C342.467 163.981 343.161 163.794 343.837 163.686C344.514 163.578 345.065 163.608 345.493 163.776C345.932 163.933 346.098 164.427 345.991 165.258Z"
        fill="black" />
    <path
        d="M376.178 132.556C376.416 132.556 376.623 132.64 376.801 132.809C376.991 132.965 377.098 133.146 377.122 133.351C377.146 133.748 377.134 134.134 377.086 134.507C377.062 134.905 377.009 135.278 376.926 135.627C376.902 135.784 376.89 135.928 376.89 136.061C375.953 140.385 374.778 144.613 373.366 148.744C373.236 149.214 373.17 149.69 373.17 150.172C373.218 150.75 373.111 151.292 372.85 151.798C372.257 152.701 371.776 153.641 371.408 154.616C368.999 161.59 366.413 168.48 363.648 175.285C361.322 181.115 358.688 186.812 355.745 192.377C354.938 193.835 354.078 195.28 353.164 196.713C352.713 197.328 352.215 197.9 351.669 198.43C351.171 198.851 350.595 198.972 349.942 198.791C349.266 198.623 348.94 198.183 348.963 197.472C349.046 196.629 349.23 195.81 349.515 195.015C351.212 190.245 353.093 185.554 355.158 180.941C358.943 172.196 363.339 163.794 368.347 155.736C369.26 154.195 369.967 152.593 370.465 150.93C371.355 148.22 372.191 145.504 372.975 142.782C373.758 140.048 374.434 137.289 375.004 134.507C375.087 134.061 375.194 133.61 375.324 133.152C375.478 132.754 375.763 132.556 376.178 132.556ZM352.683 193.732C355.116 189.228 357.329 184.638 359.323 179.965C361.316 175.291 363.149 170.528 364.823 165.673C364.799 165.698 364.775 165.74 364.751 165.8C364.668 165.848 364.591 165.914 364.52 165.999C364.33 166.336 364.146 166.667 363.968 166.992C361.773 171.124 359.744 175.334 357.881 179.622C356.006 183.922 354.22 188.24 352.523 192.576C352.5 192.636 352.488 192.678 352.488 192.702C352.416 192.835 352.381 192.986 352.381 193.154C352.381 193.335 352.482 193.528 352.683 193.732ZM454.299 131.562C454.299 131.67 454.246 131.779 454.139 131.887C454.044 131.996 453.932 132.08 453.801 132.14C453.67 132.188 453.552 132.182 453.445 132.122C452.769 131.701 452.051 131.417 451.291 131.273C450.532 131.128 449.772 131.014 449.013 130.93C448.443 130.906 447.886 130.839 447.34 130.731C445.299 130.418 443.258 130.153 441.217 129.936C434.513 129.382 427.79 129.081 421.05 129.033C414.56 128.948 408.063 129.093 401.56 129.466C394.227 129.84 386.905 130.394 379.596 131.128C372.88 131.743 366.181 132.483 359.501 133.351C359.085 133.411 358.652 133.465 358.201 133.513C355.65 133.863 353.105 134.236 350.565 134.634C348.014 135.031 345.469 135.519 342.929 136.097C342.728 136.157 342.52 136.211 342.307 136.26C341.322 136.5 340.331 136.765 339.334 137.055C338.337 137.344 337.382 137.729 336.468 138.211C336.338 138.283 336.195 138.337 336.041 138.373C335.839 138.398 335.65 138.392 335.472 138.355C335.282 138.307 335.133 138.193 335.027 138.012C334.92 137.819 334.908 137.639 334.991 137.47C335.062 137.301 335.193 137.163 335.383 137.055C335.976 136.741 336.599 136.464 337.252 136.223C338.877 135.669 340.521 135.2 342.182 134.814C343.831 134.429 345.493 134.091 347.166 133.802C351.995 132.971 356.825 132.249 361.654 131.634C366.484 131.008 371.337 130.454 376.214 129.972C383.061 129.261 389.914 128.695 396.772 128.274C402.753 127.876 408.733 127.647 414.714 127.587C419.104 127.539 423.489 127.581 427.868 127.714C432.258 127.846 436.643 128.111 441.021 128.509C445.02 128.93 448.989 129.551 452.929 130.37C453.297 130.454 453.635 130.586 453.943 130.767C454.204 130.96 454.323 131.225 454.299 131.562Z"
        fill="black" />
    <path
        d="M383.013 169.413C382.325 170.1 381.524 170.69 380.61 171.184C379.697 171.666 378.931 171.985 378.314 172.142C377.697 172.286 377.062 172.371 376.41 172.395C375.366 172.443 374.404 172.298 373.526 171.961C372.091 171.371 371.592 170.245 372.031 168.582C372.447 167.149 373.289 166.029 374.559 165.222C375.828 164.415 377.14 164.023 378.492 164.047C378.492 164.047 378.504 164.047 378.528 164.047C378.872 164.023 379.198 164.047 379.507 164.12C380.029 164.312 380.361 164.626 380.504 165.059C380.646 165.493 380.551 165.975 380.219 166.505C379.459 167.673 378.427 168.323 377.122 168.456C376.256 168.54 375.419 168.498 374.612 168.329C374.458 168.305 374.321 168.347 374.203 168.456C374.084 168.564 374.013 168.697 373.989 168.853C373.752 169.889 374.066 170.552 374.933 170.841C376 171.214 377.11 171.214 378.261 170.841C379.59 170.419 380.854 169.624 382.052 168.456C383.251 167.288 383.939 166.745 384.117 166.83C384.307 166.902 384.366 167.125 384.295 167.498C384.129 168.089 383.702 168.727 383.013 169.413ZM375.431 166.505C375.36 166.589 375.306 166.685 375.271 166.794C375.247 166.89 375.289 166.98 375.395 167.065C375.811 167.306 376.262 167.396 376.748 167.336C377.235 167.263 377.644 167.077 377.976 166.776C378.32 166.462 378.469 166.083 378.421 165.637C378.386 165.481 378.303 165.384 378.172 165.348C378.041 165.3 377.911 165.288 377.78 165.312C376.902 165.469 376.119 165.866 375.431 166.505Z"
        fill="black" />
    <path
        d="M396.131 167.155C396.416 167.312 396.44 167.703 396.203 168.329C395.859 168.787 395.491 169.215 395.099 169.612C394.707 170.01 394.28 170.365 393.818 170.678C393.782 170.678 393.764 170.69 393.764 170.714C393.456 170.931 393.129 171.118 392.785 171.274C389.949 172.31 388.501 171.702 388.442 169.45C387.291 170.461 386.52 171.082 386.128 171.311C385.191 171.877 384.176 172.13 383.085 172.069C382.278 172.021 381.732 171.774 381.447 171.329C381.15 170.871 381.174 170.257 381.518 169.486C382.04 168.269 382.782 167.185 383.743 166.234C384.87 165.174 386.122 164.324 387.499 163.686C388.234 163.313 389.006 163.168 389.813 163.252C390.62 163.301 391.106 163.764 391.272 164.644C391.343 164.909 391.278 165.144 391.076 165.348C390.815 165.589 390.513 165.643 390.169 165.511C390.145 165.511 390.109 165.505 390.062 165.493C390.026 165.481 389.997 165.463 389.973 165.439C389.629 164.957 389.279 164.758 388.923 164.842C388.579 164.915 388.211 165.071 387.819 165.312C385.992 166.396 384.633 167.908 383.743 169.847C383.696 169.931 383.666 170.028 383.654 170.136C383.642 170.233 383.672 170.311 383.743 170.371C383.957 170.443 384.194 170.431 384.455 170.335C384.716 170.227 384.977 170.076 385.238 169.883C385.499 169.678 385.719 169.51 385.897 169.377C385.921 169.341 385.932 169.323 385.932 169.323C386.799 168.588 387.647 167.836 388.478 167.065C388.846 166.667 389.302 166.444 389.848 166.396C390.631 166.396 390.958 166.752 390.827 167.462C390.756 167.727 390.679 167.992 390.596 168.257C390.287 169.401 390.275 170.076 390.56 170.281C390.845 170.473 391.278 170.473 391.86 170.281C392.453 170.076 393.04 169.697 393.622 169.142C394.215 168.576 394.713 168.064 395.117 167.607C395.52 167.137 395.859 166.986 396.131 167.155Z"
        fill="black" />
    <path
        d="M413.646 167.3C414.061 167.035 414.388 166.968 414.625 167.101C414.862 167.233 414.773 167.607 414.358 168.221C413.836 168.932 412.898 169.691 411.546 170.498C410.205 171.305 409.018 171.66 407.986 171.563C406.953 171.455 406.651 170.678 407.078 169.233C407.517 167.787 407.754 166.98 407.79 166.812C407.826 166.631 407.79 166.529 407.683 166.505C407.588 166.481 407.357 166.601 406.989 166.866C405.921 167.613 404.877 168.396 403.856 169.215C403.417 169.552 402.984 169.907 402.557 170.281C402.296 170.522 402.023 170.763 401.738 171.003C401.738 171.003 401.726 171.015 401.703 171.04C401.394 171.353 401.014 171.563 400.563 171.672C400.362 171.732 400.148 171.756 399.923 171.744C399.697 171.72 399.507 171.63 399.353 171.473C399.175 171.292 399.11 171.106 399.157 170.913C399.205 170.708 399.353 170.407 399.602 170.01C399.852 169.612 400.124 169.179 400.421 168.709C400.73 168.227 400.902 167.932 400.937 167.824C400.973 167.715 400.955 167.607 400.884 167.498C400.801 167.39 400.706 167.36 400.599 167.408C400.504 167.444 400.13 167.703 399.478 168.185C398.825 168.655 397.935 169.317 396.808 170.172C396.286 170.57 395.775 170.979 395.277 171.401C395.147 171.533 395.004 171.654 394.85 171.762C394.482 172.075 394.079 172.244 393.64 172.268C393.319 172.292 393.082 172.22 392.928 172.051C392.773 171.883 392.75 171.654 392.856 171.365C392.928 171.148 393.017 170.949 393.123 170.769C393.183 170.684 393.224 170.6 393.248 170.516C394.185 168.588 395.111 166.655 396.025 164.716C396.048 164.668 396.072 164.601 396.096 164.517C396.203 164.312 396.309 164.114 396.416 163.921C396.701 163.608 397.039 163.505 397.431 163.614C397.882 163.746 398.054 164.011 397.947 164.409C397.733 165.011 397.526 165.607 397.324 166.197C397.217 166.462 397.11 166.727 397.004 166.992C396.826 167.462 396.766 167.763 396.826 167.896C396.897 168.028 397.193 167.938 397.716 167.625C398.072 167.384 398.422 167.143 398.766 166.902C399.181 166.613 399.585 166.348 399.976 166.107C400.581 165.734 401.198 165.415 401.827 165.15C402.136 165.017 402.45 164.921 402.771 164.86C403.103 164.788 403.411 164.86 403.696 165.077C403.91 165.258 403.999 165.463 403.963 165.692C403.939 165.92 403.88 166.137 403.785 166.342C403.619 166.739 403.548 166.992 403.572 167.101C403.607 167.209 403.702 167.233 403.856 167.173C404.011 167.101 404.283 166.944 404.675 166.703C405.067 166.462 405.488 166.197 405.939 165.908C406.508 165.535 407.108 165.18 407.737 164.842C408.259 164.493 408.816 164.282 409.41 164.21C410.228 164.15 410.561 164.487 410.406 165.222C410.264 165.945 409.979 166.812 409.552 167.824C409.125 168.823 409.077 169.438 409.41 169.666C409.754 169.895 410.507 169.588 411.67 168.745C412.833 167.89 413.492 167.408 413.646 167.3Z"
        fill="black" />
    <path
        d="M417.277 172.069C418.25 172.069 418.594 172.545 418.309 173.497C418.179 173.87 418.03 174.219 417.864 174.545C417.71 174.834 417.491 175.026 417.206 175.123C416.921 175.207 416.618 175.183 416.298 175.051C416.037 174.942 415.895 174.755 415.871 174.49C415.847 174.069 415.859 173.635 415.906 173.19C415.989 172.395 416.446 172.021 417.277 172.069Z"
        fill="black" />
    <path
        d="M526.119 124.209C526.428 124.474 526.707 124.775 526.956 125.112C527.205 125.437 527.365 125.829 527.437 126.286C527.52 126.792 527.342 127.178 526.903 127.443C526.642 127.575 526.386 127.593 526.137 127.497C525.888 127.4 525.71 127.208 525.603 126.919C525.318 126.124 524.885 125.497 524.304 125.04C523.734 124.57 523.111 124.16 522.435 123.811C520.94 123.016 519.397 122.372 517.807 121.878C516.217 121.372 514.615 120.932 513.001 120.559C510.308 119.981 506.718 119.607 502.233 119.439C497.759 119.258 492.775 119.324 487.281 119.637C481.787 119.939 476.163 120.535 470.408 121.426C464.653 122.305 459.141 123.522 453.872 125.076C448.615 126.618 443.994 128.545 440.007 130.857C436.031 133.158 433.065 135.874 431.107 139.006C429.469 141.728 429.143 144.601 430.128 147.624C430.84 149.696 431.86 151.581 433.189 153.279C435.171 155.821 437.366 158.151 439.775 160.271C441.804 162.15 443.851 164.029 445.916 165.908C447.921 167.715 449.933 169.546 451.95 171.401C454.193 173.497 456.4 175.617 458.571 177.761C458.773 177.965 458.981 178.164 459.194 178.357C460.369 179.465 461.401 180.694 462.291 182.043C463.205 183.584 463.377 184.777 462.807 185.62C462.25 186.475 461.182 187.053 459.604 187.355C458.025 187.656 456.192 187.746 454.104 187.626C452.015 187.517 449.909 187.252 447.785 186.831C445.673 186.421 443.792 185.927 442.143 185.349C440.505 184.771 439.348 184.175 438.672 183.56C437.319 182.284 437.23 180.935 438.405 179.513C439.674 178.056 441.223 176.996 443.05 176.333C445.696 175.297 448.372 175.213 451.078 176.08C451.6 176.273 452.098 176.526 452.573 176.839C452.62 176.863 452.662 176.893 452.697 176.93C452.828 177.002 452.917 177.11 452.964 177.255C453.012 177.399 452.988 177.556 452.893 177.725C452.68 177.99 452.419 178.068 452.11 177.959C451.813 177.851 451.535 177.719 451.274 177.562C449.399 176.61 447.47 176.412 445.489 176.966C443.507 177.52 441.834 178.616 440.469 180.254C439.876 181.049 439.846 181.742 440.38 182.332C440.914 182.934 441.727 183.44 442.819 183.849C443.922 184.271 445.026 184.596 446.13 184.825C447.245 185.066 448.076 185.229 448.621 185.313C448.728 185.313 448.805 185.325 448.853 185.349C448.96 185.349 449.09 185.361 449.244 185.385C449.945 185.542 450.9 185.704 452.11 185.873C453.332 186.054 454.59 186.174 455.884 186.234C457.177 186.307 458.286 186.222 459.212 185.981C460.138 185.74 460.66 185.277 460.778 184.59C460.897 183.904 460.381 182.886 459.23 181.537C458.008 180.103 456.714 178.712 455.35 177.363C451.956 174.027 448.473 170.793 444.901 167.661C443.62 166.493 442.338 165.324 441.057 164.156C438.921 162.205 436.821 160.205 434.756 158.157C432.845 156.278 431.16 154.213 429.701 151.96C428.657 150.322 427.927 148.558 427.512 146.666C426.883 143.571 427.446 140.71 429.202 138.084C431.125 135.145 433.913 132.544 437.568 130.279C441.223 128.015 445.459 126.082 450.277 124.48C455.094 122.878 460.227 121.583 465.673 120.595C471.12 119.595 476.62 118.891 482.173 118.481C487.738 118.06 493.072 117.915 498.175 118.048C503.277 118.18 507.893 118.571 512.022 119.222C516.164 119.872 519.557 120.77 522.204 121.914C523.604 122.468 524.909 123.233 526.119 124.209Z"
        fill="black" />
    <path
        d="M473.238 166.938C473.297 166.938 473.362 166.956 473.434 166.992C473.517 167.017 473.582 167.053 473.629 167.101C473.796 167.257 473.813 167.444 473.683 167.661C473.517 167.842 473.356 167.998 473.202 168.131C472.288 168.986 471.274 169.703 470.159 170.281C468.402 171.184 466.468 171.648 464.356 171.672C463.573 171.696 462.766 171.563 461.935 171.274C460.416 170.672 459.799 169.558 460.084 167.932C460.428 166.426 461.265 165.18 462.594 164.192C463.923 163.192 465.347 162.759 466.866 162.891C467.15 162.939 467.435 163.006 467.72 163.09C467.981 163.198 468.177 163.361 468.307 163.578C468.438 163.782 468.45 163.951 468.343 164.084C468.058 164.397 467.732 164.475 467.364 164.318C466.818 164.078 466.314 164.011 465.851 164.12C465.4 164.228 464.943 164.481 464.481 164.879C464.03 165.228 463.543 165.734 463.021 166.396C462.499 167.059 462.167 167.727 462.024 168.402C461.882 169.076 462.179 169.624 462.914 170.046C463.745 170.419 464.593 170.51 465.46 170.317C467.619 169.871 469.625 169.04 471.476 167.824C471.642 167.739 471.79 167.643 471.921 167.534C472.122 167.378 472.324 167.251 472.526 167.155C472.739 167.047 472.977 166.974 473.238 166.938Z"
        fill="black" />
    <path
        d="M485.199 167.155C485.484 167.312 485.507 167.703 485.27 168.329C484.926 168.787 484.558 169.215 484.167 169.612C483.775 170.01 483.348 170.365 482.885 170.678C482.849 170.678 482.832 170.69 482.832 170.714C482.523 170.931 482.197 171.118 481.853 171.274C479.017 172.31 477.569 171.702 477.51 169.45C476.359 170.461 475.587 171.082 475.196 171.311C474.258 171.877 473.244 172.13 472.152 172.069C471.345 172.021 470.799 171.774 470.515 171.329C470.218 170.871 470.242 170.257 470.586 169.486C471.108 168.269 471.849 167.185 472.811 166.234C473.938 165.174 475.19 164.324 476.566 163.686C477.302 163.313 478.073 163.168 478.88 163.252C479.687 163.301 480.174 163.764 480.34 164.644C480.411 164.909 480.346 165.144 480.144 165.348C479.883 165.589 479.58 165.643 479.236 165.511C479.212 165.511 479.177 165.505 479.129 165.493C479.094 165.481 479.064 165.463 479.04 165.439C478.696 164.957 478.346 164.758 477.99 164.842C477.646 164.915 477.278 165.071 476.887 165.312C475.059 166.396 473.701 167.908 472.811 169.847C472.763 169.931 472.733 170.028 472.722 170.136C472.71 170.233 472.739 170.311 472.811 170.371C473.024 170.443 473.262 170.431 473.523 170.335C473.784 170.227 474.045 170.076 474.306 169.883C474.567 169.678 474.786 169.51 474.964 169.377C474.988 169.341 475 169.323 475 169.323C475.866 168.588 476.715 167.836 477.545 167.065C477.913 166.667 478.37 166.444 478.916 166.396C479.699 166.396 480.025 166.752 479.895 167.462C479.824 167.727 479.746 167.992 479.663 168.257C479.355 169.401 479.343 170.076 479.628 170.281C479.913 170.473 480.346 170.473 480.927 170.281C481.52 170.076 482.108 169.697 482.689 169.142C483.283 168.576 483.781 168.064 484.184 167.607C484.588 167.137 484.926 166.986 485.199 167.155Z"
        fill="black" />
    <path
        d="M492.728 167.733C493.12 167.336 493.446 167.113 493.707 167.065C493.968 167.017 494.134 167.059 494.205 167.191C494.288 167.324 494.241 167.504 494.063 167.733C493.019 169.01 491.85 170.112 490.556 171.04C489.263 171.967 487.928 172.503 486.552 172.648C485.187 172.792 484.362 172.033 484.078 170.371C483.864 168.721 484.849 165.36 487.032 160.289C489.216 155.218 490.942 151.063 492.212 147.823C492.319 147.534 492.479 147.281 492.692 147.064C492.977 146.775 493.315 146.709 493.707 146.865C493.837 146.925 493.968 147.022 494.099 147.154C494.229 147.287 494.271 147.522 494.223 147.859C488.61 161.373 485.893 168.721 486.071 169.901C486.249 171.082 486.997 171.377 488.314 170.787C489.643 170.184 490.663 169.576 491.375 168.962C492.099 168.335 492.55 167.926 492.728 167.733Z"
        fill="black" />
    <path
        d="M503.158 169.413C502.47 170.1 501.669 170.69 500.755 171.184C499.842 171.666 499.076 171.985 498.459 172.142C497.842 172.286 497.207 172.371 496.555 172.395C495.511 172.443 494.549 172.298 493.671 171.961C492.236 171.371 491.737 170.245 492.176 168.582C492.592 167.149 493.434 166.029 494.704 165.222C495.973 164.415 497.285 164.023 498.637 164.047C498.637 164.047 498.649 164.047 498.673 164.047C499.017 164.023 499.343 164.047 499.652 164.12C500.174 164.312 500.506 164.626 500.649 165.059C500.791 165.493 500.696 165.975 500.364 166.505C499.604 167.673 498.572 168.323 497.267 168.456C496.401 168.54 495.564 168.498 494.757 168.329C494.603 168.305 494.466 168.347 494.348 168.456C494.229 168.564 494.158 168.697 494.134 168.853C493.897 169.889 494.211 170.552 495.077 170.841C496.145 171.214 497.255 171.214 498.406 170.841C499.735 170.419 500.999 169.624 502.197 168.456C503.396 167.288 504.084 166.745 504.262 166.83C504.452 166.902 504.511 167.125 504.44 167.498C504.274 168.089 503.847 168.727 503.158 169.413ZM495.576 166.505C495.505 166.589 495.451 166.685 495.416 166.794C495.392 166.89 495.433 166.98 495.54 167.065C495.956 167.306 496.406 167.396 496.893 167.336C497.38 167.263 497.789 167.077 498.121 166.776C498.465 166.462 498.614 166.083 498.566 165.637C498.531 165.481 498.448 165.384 498.317 165.348C498.186 165.3 498.056 165.288 497.925 165.312C497.047 165.469 496.264 165.866 495.576 166.505Z"
        fill="black" />
    <path
        d="M530.801 166.938C530.955 167.239 530.7 167.709 530.035 168.347C529.371 168.974 528.202 169.739 526.529 170.642C525.9 170.907 525.443 171.118 525.158 171.274C524.873 171.431 524.666 171.63 524.535 171.871C524.405 172.112 524.262 172.485 524.108 172.991C523.978 173.364 523.805 173.864 523.592 174.49C523.307 175.261 523.022 176.056 522.738 176.875C522.215 178.55 521.592 180.2 520.869 181.826C520.157 183.464 519.231 184.891 518.092 186.108C516.953 187.324 515.487 188.131 513.695 188.529C511.892 188.878 510.148 188.932 508.463 188.692C506.778 188.451 505.128 187.975 503.514 187.264C502.862 186.963 502.274 186.566 501.752 186.072C500.886 185.168 500.821 184.157 501.556 183.036C501.948 182.482 502.405 181.982 502.927 181.537C503.971 180.682 505.063 179.899 506.202 179.188C508.326 177.887 510.498 176.695 512.717 175.611C514.936 174.527 517.178 173.479 519.445 172.467C519.599 172.395 519.771 172.316 519.961 172.232C520.578 171.943 521.213 171.654 521.865 171.365C522.316 171.196 522.619 170.889 522.773 170.443C522.821 170.287 522.832 170.142 522.809 170.01C522.785 169.925 522.738 169.877 522.666 169.865C522.607 169.853 522.536 169.871 522.453 169.919C522.227 170.052 521.996 170.202 521.759 170.371C521.628 170.443 521.486 170.534 521.331 170.642C520.513 171.124 519.664 171.335 518.786 171.274C517.398 171.274 516.692 170.642 516.668 169.377C516.644 168.341 516.816 167.36 517.184 166.432C517.564 165.505 518.098 164.632 518.786 163.813C518.857 163.728 518.958 163.662 519.089 163.614C519.219 163.554 519.35 163.511 519.48 163.487C519.504 163.487 519.534 163.475 519.569 163.451C519.83 163.427 520.032 163.493 520.174 163.65C520.317 163.807 520.346 164.005 520.263 164.246C520.109 164.583 519.955 164.927 519.801 165.276C519.67 165.541 519.54 165.806 519.409 166.071C518.887 167.107 518.65 168.191 518.697 169.323C518.721 169.564 518.822 169.739 519 169.847C519.19 169.955 519.403 169.955 519.64 169.847C520.341 169.558 520.952 169.148 521.474 168.618C522.886 167.318 524.049 165.818 524.962 164.12C525.093 163.879 525.241 163.674 525.407 163.505C525.585 163.337 525.817 163.24 526.102 163.216C526.469 163.18 526.748 163.264 526.938 163.469C527.14 163.662 527.199 163.921 527.116 164.246C526.784 165.33 526.434 166.402 526.066 167.462C526.042 167.546 526.013 167.625 525.977 167.697C525.882 167.938 525.793 168.191 525.71 168.456C525.627 168.721 525.585 168.956 525.585 169.161C525.585 169.353 525.668 169.45 525.835 169.45C526.487 169.317 527.437 168.787 528.682 167.86C529.94 166.932 530.646 166.625 530.801 166.938ZM521.474 174.183C521.474 174.123 521.492 174.069 521.527 174.021C521.598 173.888 521.64 173.744 521.652 173.587C521.664 173.43 521.622 173.268 521.527 173.099C521.444 173.099 521.379 173.099 521.331 173.099C521.165 173.135 521.017 173.178 520.886 173.226C520.625 173.334 520.364 173.455 520.103 173.587C518.015 174.563 515.926 175.568 513.838 176.604C511.749 177.64 509.703 178.742 507.697 179.911C506.475 180.621 505.324 181.452 504.244 182.404C503.366 183.199 502.945 183.892 502.98 184.482C503.016 185.084 503.532 185.626 504.529 186.108C506.795 187.3 509.234 187.788 511.844 187.571C513.624 187.391 515.072 186.71 516.187 185.53C517.291 184.349 518.193 182.934 518.893 181.284C519.605 179.646 520.222 178.008 520.744 176.369C520.969 175.599 521.213 174.87 521.474 174.183Z"
        fill="black" />
    <path
        d="M532.616 172.069H532.563C530.842 172.045 529.709 171.66 529.163 170.913C528.617 170.154 528.641 169.148 529.234 167.896C529.733 166.944 530.362 166.113 531.121 165.402C531.382 165.162 531.649 164.969 531.922 164.824C532.195 164.68 532.503 164.608 532.848 164.608C533.049 164.571 533.281 164.608 533.542 164.716C533.625 164.74 533.708 164.77 533.791 164.806C533.993 164.77 534.188 164.704 534.378 164.608C534.426 164.571 534.491 164.541 534.574 164.517C534.966 164.361 535.381 164.294 535.82 164.318C535.998 164.318 536.182 164.318 536.372 164.318C537.072 164.427 537.6 164.728 537.956 165.222C538.312 165.704 538.436 166.294 538.33 166.992C538.27 167.414 538.14 167.811 537.938 168.185C536.573 170.666 534.835 171.961 532.723 172.069H532.616ZM535.428 165.601C534.491 165.565 533.654 165.842 532.919 166.432C532.195 167.01 531.655 167.679 531.299 168.438C530.943 169.197 530.842 169.823 530.996 170.317C531.163 170.799 531.661 170.931 532.492 170.714C533.429 170.425 534.254 169.883 534.966 169.088C535.689 168.293 536.128 167.54 536.283 166.83C536.449 166.107 536.164 165.698 535.428 165.601Z"
        fill="black" />
    <path
        d="M539.7 173.153C538.573 173.153 538.009 172.557 538.009 171.365C538.009 169.907 538.941 167.336 540.804 163.65C540.875 163.493 541.005 163.415 541.195 163.415C541.943 163.415 542.317 163.716 542.317 164.318C542.317 164.535 542.251 164.8 542.121 165.113C542.073 165.198 541.45 166.788 540.252 169.883C540.062 170.389 539.967 170.763 539.967 171.003C539.967 171.268 540.086 171.401 540.323 171.401C541.189 171.401 543.462 169.215 547.14 164.842C547.615 164.252 548.084 163.957 548.546 163.957C549.223 163.957 549.561 164.21 549.561 164.716C549.561 164.909 549.353 165.637 548.938 166.902C548.368 168.625 548.084 169.618 548.084 169.883C548.084 170.281 548.214 170.479 548.475 170.479C549.128 170.479 551.032 169.299 554.189 166.938C554.367 166.782 554.521 166.703 554.652 166.703C554.948 166.703 555.097 166.956 555.097 167.462C555.097 167.595 555.055 167.703 554.972 167.787C553.299 169.245 551.875 170.353 550.7 171.112C549.632 171.81 548.683 172.16 547.852 172.16H547.603C546.381 171.895 545.77 170.925 545.77 169.251C544.465 170.419 543.379 171.365 542.513 172.087C541.658 172.798 540.721 173.153 539.7 173.153Z"
        fill="black" />
    <path
        d="M562.43 165.258C562.323 166.089 561.937 166.631 561.273 166.884C560.608 167.137 560.389 166.806 560.614 165.89C560.852 164.975 560.448 164.746 559.404 165.204C558.36 165.649 557.499 166.216 556.823 166.902C555.779 167.986 554.853 169.155 554.046 170.407C553.963 170.516 553.898 170.606 553.851 170.678C553.613 171.028 553.376 171.359 553.139 171.672C552.984 171.889 552.806 172.027 552.605 172.087C552.391 172.136 552.177 172.142 551.964 172.106C551.762 172.081 551.608 172.003 551.501 171.871C551.394 171.738 551.382 171.582 551.466 171.401C551.596 171.076 551.75 170.744 551.928 170.407C552.996 168.396 554.082 166.378 555.186 164.355C555.209 164.33 555.221 164.306 555.221 164.282C555.375 163.969 555.559 163.68 555.773 163.415C556.01 163.15 556.283 163.042 556.592 163.09C556.9 163.138 557.108 163.325 557.215 163.65C557.345 164.072 557.458 164.312 557.553 164.373C557.648 164.421 557.861 164.379 558.194 164.246C558.906 163.981 559.6 163.794 560.276 163.686C560.953 163.578 561.504 163.608 561.931 163.776C562.371 163.933 562.537 164.427 562.43 165.258Z"
        fill="black" />
    <path
        d="M689.819 188.366C689.867 188.39 689.896 188.445 689.908 188.529C689.932 188.613 689.944 188.679 689.944 188.728C689.908 188.812 689.867 188.878 689.819 188.926C689.772 188.975 689.718 189.017 689.659 189.053C689.422 189.149 689.19 189.185 688.965 189.161C688.727 189.161 688.502 189.149 688.288 189.125C688.182 189.101 688.093 189.089 688.021 189.089C686.918 188.981 685.82 188.86 684.729 188.728C682.165 188.463 679.62 188.21 677.093 187.969C672.18 187.523 667.262 187.114 662.337 186.74C655.443 186.258 648.537 185.885 641.619 185.62C636.659 185.439 631.699 185.307 626.739 185.223C626.193 185.198 625.641 185.186 625.083 185.186C624.514 185.186 623.956 185.174 623.41 185.15C620.04 185.066 616.67 185.024 613.3 185.024H613.229C611.247 185.024 609.278 185.066 607.32 185.15C606.584 185.174 605.866 185.186 605.166 185.186C604.276 185.21 603.374 185.385 602.46 185.71C595.614 188.143 588.696 189.932 581.706 191.076C579.689 191.414 577.678 191.697 575.673 191.926C573.667 192.154 571.656 192.269 569.639 192.269C568.986 192.269 568.333 192.257 567.681 192.233C566.696 192.233 565.746 192.1 564.833 191.835C564.465 191.751 564.121 191.63 563.8 191.474C563.516 191.366 563.272 191.209 563.071 191.004C562.881 190.811 562.798 190.54 562.821 190.191C562.881 189.854 563.023 189.565 563.249 189.324C563.486 189.083 563.753 188.884 564.05 188.728C564.963 188.198 565.924 187.842 566.933 187.662C567.431 187.529 567.942 187.409 568.464 187.3C570.161 186.903 571.869 186.572 573.59 186.307C580.484 185.271 587.355 184.596 594.202 184.283C594.617 184.247 595.02 184.217 595.412 184.193C597.524 184.084 599.636 183.994 601.748 183.922C602.508 183.898 603.267 183.753 604.027 183.488C606.637 182.5 609.206 181.398 611.734 180.182C614.273 178.965 616.753 177.586 619.174 176.044C621.191 174.804 623.048 173.334 624.745 171.636C625.706 170.708 626.489 169.66 627.095 168.492C627.901 166.794 627.753 165.324 626.65 164.084C625.866 163.264 624.941 162.626 623.873 162.168C622.461 161.506 620.989 160.976 619.459 160.578C617.94 160.181 616.397 159.838 614.831 159.549C610.393 158.814 605.866 158.362 601.25 158.194C601.084 158.194 600.924 158.194 600.769 158.194C600.591 158.194 600.408 158.194 600.218 158.194C599.826 158.254 599.529 158.495 599.328 158.916C599.221 159.097 599.126 159.272 599.043 159.44C598.841 159.838 598.634 160.235 598.42 160.633C596.782 163.993 595.151 167.342 593.525 170.678C592.172 173.521 590.802 176.345 589.414 179.152C589.39 179.26 589.354 179.351 589.307 179.423C589.141 179.772 588.957 180.103 588.755 180.417C588.518 180.682 588.245 180.79 587.936 180.742C587.746 180.766 587.562 180.754 587.384 180.706C587.064 180.537 586.957 180.284 587.064 179.947C587.349 179.2 587.663 178.471 588.007 177.761C590.072 173.304 592.137 168.865 594.202 164.445C594.878 163.036 595.542 161.632 596.195 160.235C596.243 160.103 596.296 159.982 596.355 159.874C596.51 159.549 596.652 159.229 596.782 158.916C596.96 158.434 596.818 158.181 596.355 158.157C596.118 158.133 595.881 158.121 595.643 158.121C595.335 158.097 595.032 158.073 594.736 158.049C594.688 158.049 594.623 158.049 594.54 158.049C594.184 158.013 593.846 157.953 593.525 157.868C593.217 157.772 593.033 157.525 592.973 157.128C592.973 156.682 593.122 156.351 593.418 156.134C593.727 155.917 594.065 155.742 594.433 155.61C594.563 155.562 594.682 155.526 594.789 155.501C595.774 155.08 596.776 154.707 597.797 154.381C597.904 154.333 598.022 154.297 598.153 154.273C598.936 154.032 599.523 153.526 599.915 152.755C601.659 149.395 603.41 146.04 605.166 142.692C605.759 141.535 606.37 140.361 606.999 139.168C607.082 139 607.159 138.837 607.231 138.681C607.385 138.343 607.569 138.012 607.782 137.687C608.043 137.289 608.382 137.133 608.797 137.217C608.987 137.193 609.171 137.205 609.349 137.253C609.74 137.434 609.859 137.741 609.705 138.175C609.705 138.199 609.693 138.211 609.669 138.211C609.372 139.114 609.016 139.988 608.601 140.831C607.581 142.866 606.536 144.908 605.468 146.956C605.136 147.642 604.786 148.329 604.418 149.015C604.228 149.365 604.045 149.708 603.867 150.045C603.558 150.635 603.255 151.232 602.959 151.834C602.959 151.834 602.947 151.852 602.923 151.888C602.876 151.984 602.834 152.087 602.799 152.195C602.775 152.304 602.828 152.382 602.959 152.43C603.042 152.466 603.125 152.496 603.208 152.52L603.279 152.484C603.433 152.448 603.605 152.406 603.795 152.358C603.843 152.334 603.89 152.31 603.938 152.285C609.657 150.455 615.371 148.558 621.078 146.594C626.786 144.631 632.458 142.523 638.094 140.271C638.225 140.222 638.344 140.186 638.45 140.162C640.171 139.439 641.886 138.717 643.594 137.994C645.303 137.259 646.994 136.47 648.667 135.627C649.913 135.013 651.088 134.284 652.191 133.441C654.541 131.502 654.642 129.767 652.494 128.238C651.485 127.539 650.382 127.009 649.183 126.648C647.997 126.274 646.781 126.009 645.535 125.853C642.556 125.395 639.542 125.166 636.493 125.166H636.439C633.496 125.19 630.524 125.335 627.522 125.6C620.865 126.19 614.22 127.334 607.587 129.033C601.475 130.562 595.483 132.652 589.609 135.302C588.067 135.989 586.566 136.771 585.106 137.651C584.691 137.916 584.275 138.157 583.86 138.373C583.623 138.47 583.397 138.494 583.184 138.446C582.899 138.494 582.668 138.416 582.49 138.211C582.359 138.018 582.353 137.844 582.472 137.687C582.59 137.53 582.739 137.398 582.917 137.289C584.175 136.386 585.48 135.633 586.833 135.031C586.856 135.031 586.88 135.019 586.904 134.995C592.445 132.345 598.111 130.225 603.902 128.635C612.256 126.298 620.651 124.841 629.088 124.263C631.699 124.07 634.297 123.974 636.884 123.974C639.696 123.95 642.485 124.094 645.25 124.407C647.86 124.672 650.34 125.287 652.69 126.25C653.793 126.672 654.749 127.304 655.556 128.147C656.232 128.894 656.529 129.719 656.446 130.623C656.374 131.514 655.947 132.399 655.164 133.278C654.167 134.29 653.058 135.127 651.836 135.79C650.352 136.633 648.839 137.398 647.297 138.084C645.754 138.771 644.2 139.433 642.633 140.072C642.586 140.096 642.521 140.126 642.438 140.162C636.979 142.439 631.473 144.553 625.92 146.504C620.378 148.443 614.813 150.316 609.224 152.123C608.287 152.436 607.349 152.755 606.412 153.08C605.107 153.526 603.801 153.96 602.496 154.381C601.926 154.514 601.47 154.833 601.125 155.339C600.841 155.821 600.716 156.194 600.752 156.459C600.787 156.724 601.084 156.869 601.642 156.893C603.125 156.941 604.608 157.019 606.091 157.128C606.198 157.128 606.293 157.128 606.376 157.128C609.189 157.308 611.965 157.615 614.706 158.049C617.447 158.471 620.123 159.091 622.734 159.91C623.861 160.283 624.947 160.705 625.991 161.175C626.691 161.5 627.356 161.897 627.985 162.367C630.678 164.487 630.874 167.155 628.572 170.371C627.812 171.431 626.94 172.395 625.955 173.262C623.523 175.382 620.912 177.213 618.124 178.754C615.715 180.103 613.27 181.35 610.79 182.494C610.506 182.591 610.209 182.723 609.9 182.892C609.746 182.964 609.574 183.042 609.384 183.127C609.539 183.368 609.681 183.512 609.811 183.56C609.942 183.609 610.09 183.621 610.256 183.596C610.256 183.596 610.268 183.596 610.292 183.596C610.731 183.621 611.158 183.633 611.574 183.633H611.627C611.912 183.633 612.197 183.621 612.481 183.596C613.787 183.596 615.092 183.596 616.397 183.596C624.146 183.621 631.859 183.795 639.536 184.12C647.89 184.41 656.208 184.927 664.491 185.674C667.125 185.903 669.759 186.138 672.394 186.379C675.574 186.644 678.748 186.921 681.916 187.21C683.767 187.403 685.607 187.632 687.434 187.897C687.873 187.945 688.33 187.999 688.805 188.059C689.137 188.107 689.475 188.21 689.819 188.366ZM597.761 156.604C597.809 156.58 597.856 156.531 597.904 156.459C597.963 156.375 598.005 156.308 598.028 156.26C598.028 156.2 598.017 156.158 597.993 156.134C597.969 156.11 597.928 156.068 597.868 156.007C597.868 156.007 597.856 155.995 597.833 155.971C597.548 156.031 597.287 156.176 597.049 156.405C597.002 156.465 596.984 156.531 596.996 156.604C597.008 156.664 597.055 156.694 597.138 156.694C597.34 156.694 597.548 156.664 597.761 156.604ZM595.803 186.27C595.851 186.234 595.904 186.216 595.964 186.216C596.059 186.192 596.159 186.144 596.266 186.072C596.373 186.011 596.45 185.915 596.498 185.783C596.45 185.674 596.403 185.608 596.355 185.584C596.32 185.584 596.29 185.584 596.266 185.584C589.953 185.873 583.623 186.415 577.274 187.21C574.142 187.583 571.021 188.18 567.912 188.999C567.841 189.035 567.764 189.065 567.681 189.089C567.135 189.197 566.642 189.42 566.203 189.757C566.096 189.842 566.025 189.932 565.99 190.029C565.966 190.137 566.019 190.233 566.15 190.318C566.411 190.426 566.69 190.516 566.986 190.589C567.995 190.781 569.022 190.878 570.066 190.878C570.956 190.878 571.846 190.836 572.736 190.751C580.461 190.089 588.15 188.595 595.803 186.27Z"
        fill="black" />
    <path
        d="M633.894 173.153C632.767 173.153 632.203 172.557 632.203 171.365C632.203 169.907 633.134 167.336 634.997 163.65C635.069 163.493 635.199 163.415 635.389 163.415C636.137 163.415 636.51 163.716 636.51 164.318C636.51 164.535 636.445 164.8 636.315 165.113C636.267 165.198 635.644 166.788 634.446 169.883C634.256 170.389 634.161 170.763 634.161 171.003C634.161 171.268 634.28 171.401 634.517 171.401C635.383 171.401 637.655 169.215 641.334 164.842C641.809 164.252 642.277 163.957 642.74 163.957C643.416 163.957 643.755 164.21 643.755 164.716C643.755 164.909 643.547 165.637 643.132 166.902C642.562 168.625 642.277 169.618 642.277 169.883C642.277 170.281 642.408 170.479 642.669 170.479C643.322 170.479 645.226 169.299 648.382 166.938C648.56 166.782 648.715 166.703 648.845 166.703C649.142 166.703 649.29 166.956 649.29 167.462C649.29 167.595 649.249 167.703 649.166 167.787C647.492 169.245 646.069 170.353 644.894 171.112C643.826 171.81 642.877 172.16 642.046 172.16H641.797C640.575 171.895 639.963 170.925 639.963 169.251C638.658 170.419 637.572 171.365 636.706 172.087C635.852 172.798 634.914 173.153 633.894 173.153Z"
        fill="black" />
    <path
        d="M656.695 167.191C654.82 167.902 653.467 168.48 652.636 168.926C652.031 169.227 651.681 169.48 651.586 169.684C651.503 169.877 651.574 170.239 651.8 170.769C651.8 170.793 651.818 170.829 651.853 170.877C652.114 171.515 652.269 172.178 652.316 172.864C652.399 174.25 651.236 175.219 648.827 175.773C646.43 176.327 644.829 176.345 644.022 175.827C643.203 175.31 642.954 174.653 643.274 173.858C643.583 173.063 644.395 172.256 645.713 171.437C647.03 170.618 647.908 170.028 648.347 169.666C648.798 169.305 648.934 168.902 648.756 168.456C648.697 168.299 648.632 168.143 648.56 167.986C648.406 167.613 648.246 167.227 648.08 166.83C647.771 166.107 647.641 165.396 647.688 164.698C647.724 163.999 647.973 163.415 648.436 162.945C648.911 162.463 649.64 162.205 650.625 162.168C651.183 162.144 651.681 162.223 652.12 162.403C652.559 162.572 652.909 162.891 653.17 163.361C653.384 163.686 653.319 163.981 652.975 164.246C652.749 164.427 652.506 164.451 652.245 164.318C652.079 164.246 651.919 164.144 651.764 164.011C651.764 163.975 651.764 163.957 651.764 163.957C651.693 163.909 651.628 163.861 651.569 163.813C651.497 163.704 651.42 163.62 651.337 163.56C651.029 163.331 650.714 163.264 650.394 163.361C650.085 163.445 649.854 163.686 649.7 164.084C649.593 164.397 649.539 164.716 649.539 165.041C649.563 165.439 649.652 165.824 649.806 166.197C649.913 166.426 650.008 166.637 650.091 166.83C650.293 167.36 650.459 167.727 650.59 167.932C650.72 168.125 650.874 168.209 651.052 168.185C651.242 168.149 652.927 167.534 656.107 166.342C656.796 166.113 656.991 166.396 656.695 167.191ZM648.988 174.093C649.818 173.804 650.168 173.238 650.038 172.395C650.038 172.334 650.026 172.268 650.002 172.196C649.955 171.738 649.86 171.389 649.717 171.148C649.575 170.895 649.255 170.901 648.756 171.166C647.522 171.877 646.383 172.708 645.339 173.659C645.268 173.744 645.202 173.822 645.143 173.894C645.143 173.894 645.131 173.912 645.107 173.948C645.036 174.045 645.024 174.153 645.072 174.274C645.119 174.394 645.226 174.454 645.392 174.454C646.614 174.647 647.813 174.527 648.988 174.093Z"
        fill="black" />
    <path
        d="M663.049 168.745C662.42 169.504 661.673 170.202 660.806 170.841C659.94 171.479 658.961 171.913 657.869 172.142C656.778 172.358 655.929 172.274 655.324 171.889C654.719 171.503 654.6 170.648 654.968 169.323C655.443 167.95 656.095 166.643 656.926 165.402C657.116 165.137 657.389 164.951 657.745 164.842C658.006 164.782 658.231 164.83 658.421 164.987C658.623 165.131 658.7 165.318 658.653 165.547C658.475 165.981 658.279 166.414 658.065 166.848C657.852 167.282 657.709 167.565 657.638 167.697C657.223 168.468 656.932 169.275 656.766 170.118C656.766 170.6 657.401 170.63 658.67 170.208C659.94 169.787 661.174 169.016 662.373 167.896C663.571 166.764 664.141 166.432 664.081 166.902C664.034 167.36 663.69 167.974 663.049 168.745ZM659.952 162.692C659.893 162.741 659.768 162.801 659.578 162.873C659.4 162.933 659.204 162.981 658.991 163.018C658.789 163.042 658.629 163.006 658.51 162.909C658.392 162.813 658.386 162.62 658.492 162.331C658.682 161.825 658.878 161.385 659.08 161.012C659.293 160.627 659.566 160.205 659.899 159.747C660.112 159.543 660.344 159.434 660.593 159.422C660.842 159.398 661.05 159.464 661.216 159.621C661.382 159.765 661.429 159.97 661.358 160.235C661.097 161.187 660.628 162.006 659.952 162.692Z"
        fill="black" />
    <path
        d="M677.021 167.336C677.211 167.577 676.974 168.016 676.309 168.655C675.645 169.293 674.939 169.829 674.191 170.263C673.444 170.696 672.578 171.13 671.593 171.563C670.94 171.853 670.246 171.949 669.51 171.853C668.774 171.756 668.407 171.305 668.407 170.498C668.407 169.691 668.591 168.89 668.958 168.095C669.326 167.275 669.403 166.854 669.19 166.83C668.988 166.806 668.561 167.004 667.908 167.426C666.211 168.558 664.633 169.853 663.174 171.311C662.782 171.792 662.284 172.057 661.678 172.106C661.37 172.106 661.133 172.009 660.967 171.816C660.789 171.612 660.765 171.395 660.895 171.166C661.94 169.203 662.996 167.263 664.064 165.348C664.301 164.951 664.657 164.704 665.132 164.608C665.333 164.571 665.517 164.638 665.683 164.806C665.861 164.963 665.95 165.144 665.95 165.348C665.927 165.541 665.849 165.77 665.719 166.035C665.66 166.191 665.6 166.342 665.541 166.487C665.493 166.631 665.476 166.752 665.488 166.848C665.511 166.944 665.588 166.974 665.719 166.938C665.897 166.842 666.075 166.739 666.253 166.631C666.704 166.366 667.137 166.113 667.552 165.872C667.92 165.655 668.306 165.463 668.709 165.294C669.113 165.125 669.534 165.011 669.973 164.951C670.685 164.903 671.189 165.065 671.486 165.439C671.783 165.812 671.818 166.33 671.593 166.992C671.355 167.595 671.106 168.191 670.845 168.781C670.525 169.335 670.471 169.757 670.685 170.046C670.898 170.335 671.889 170.004 673.657 169.052L674.992 168.257C676.25 167.438 676.927 167.131 677.021 167.336Z"
        fill="black" />
    <path
        d="M686.135 169.413C685.446 170.1 684.645 170.69 683.732 171.184C682.818 171.666 682.053 171.985 681.436 172.142C680.819 172.286 680.184 172.371 679.531 172.395C678.487 172.443 677.526 172.298 676.648 171.961C675.212 171.371 674.713 170.245 675.153 168.582C675.568 167.149 676.41 166.029 677.68 165.222C678.95 164.415 680.261 164.023 681.614 164.047C681.614 164.047 681.626 164.047 681.649 164.047C681.993 164.023 682.32 164.047 682.628 164.12C683.15 164.312 683.483 164.626 683.625 165.059C683.767 165.493 683.672 165.975 683.34 166.505C682.581 167.673 681.548 168.323 680.243 168.456C679.377 168.54 678.54 168.498 677.733 168.329C677.579 168.305 677.443 168.347 677.324 168.456C677.205 168.564 677.134 168.697 677.11 168.853C676.873 169.889 677.188 170.552 678.054 170.841C679.122 171.214 680.231 171.214 681.382 170.841C682.711 170.419 683.975 169.624 685.174 168.456C686.372 167.288 687.06 166.745 687.238 166.83C687.428 166.902 687.487 167.125 687.416 167.498C687.25 168.089 686.823 168.727 686.135 169.413ZM678.552 166.505C678.481 166.589 678.428 166.685 678.392 166.794C678.368 166.89 678.41 166.98 678.517 167.065C678.932 167.306 679.383 167.396 679.869 167.336C680.356 167.263 680.765 167.077 681.097 166.776C681.442 166.462 681.59 166.083 681.542 165.637C681.507 165.481 681.424 165.384 681.293 165.348C681.163 165.3 681.032 165.288 680.902 165.312C680.024 165.469 679.24 165.866 678.552 166.505Z"
        fill="black" />
    <path
        d="M694.963 167.191C693.088 167.902 691.736 168.48 690.905 168.926C690.3 169.227 689.95 169.48 689.855 169.684C689.772 169.877 689.843 170.239 690.068 170.769C690.068 170.793 690.086 170.829 690.122 170.877C690.383 171.515 690.537 172.178 690.584 172.864C690.668 174.25 689.505 175.219 687.096 175.773C684.699 176.327 683.097 176.345 682.29 175.827C681.471 175.31 681.222 174.653 681.542 173.858C681.851 173.063 682.664 172.256 683.981 171.437C685.298 170.618 686.176 170.028 686.615 169.666C687.066 169.305 687.203 168.902 687.025 168.456C686.965 168.299 686.9 168.143 686.829 167.986C686.675 167.613 686.514 167.227 686.348 166.83C686.04 166.107 685.909 165.396 685.957 164.698C685.992 163.999 686.241 163.415 686.704 162.945C687.179 162.463 687.909 162.205 688.894 162.168C689.451 162.144 689.95 162.223 690.389 162.403C690.828 162.572 691.178 162.891 691.439 163.361C691.652 163.686 691.587 163.981 691.243 164.246C691.018 164.427 690.774 164.451 690.513 164.318C690.347 164.246 690.187 164.144 690.033 164.011C690.033 163.975 690.033 163.957 690.033 163.957C689.962 163.909 689.896 163.861 689.837 163.813C689.766 163.704 689.689 163.62 689.606 163.56C689.297 163.331 688.983 163.264 688.662 163.361C688.354 163.445 688.122 163.686 687.968 164.084C687.861 164.397 687.808 164.716 687.808 165.041C687.832 165.439 687.921 165.824 688.075 166.197C688.182 166.426 688.277 166.637 688.36 166.83C688.561 167.36 688.727 167.727 688.858 167.932C688.988 168.125 689.143 168.209 689.321 168.185C689.511 168.149 691.196 167.534 694.376 166.342C695.064 166.113 695.26 166.396 694.963 167.191ZM687.256 174.093C688.087 173.804 688.437 173.238 688.306 172.395C688.306 172.334 688.294 172.268 688.271 172.196C688.223 171.738 688.128 171.389 687.986 171.148C687.843 170.895 687.523 170.901 687.025 171.166C685.791 171.877 684.651 172.708 683.607 173.659C683.536 173.744 683.471 173.822 683.411 173.894C683.411 173.894 683.4 173.912 683.376 173.948C683.305 174.045 683.293 174.153 683.34 174.274C683.388 174.394 683.494 174.454 683.661 174.454C684.883 174.647 686.081 174.527 687.256 174.093Z"
        fill="black" />
    <path
        d="M702.866 167.191C700.991 167.902 699.638 168.48 698.808 168.926C698.203 169.227 697.853 169.48 697.758 169.684C697.675 169.877 697.746 170.239 697.971 170.769C697.971 170.793 697.989 170.829 698.025 170.877C698.286 171.515 698.44 172.178 698.487 172.864C698.57 174.25 697.408 175.219 694.999 175.773C692.602 176.327 691 176.345 690.193 175.827C689.374 175.31 689.125 174.653 689.445 173.858C689.754 173.063 690.567 172.256 691.884 171.437C693.201 170.618 694.079 170.028 694.518 169.666C694.969 169.305 695.105 168.902 694.928 168.456C694.868 168.299 694.803 168.143 694.732 167.986C694.577 167.613 694.417 167.227 694.251 166.83C693.943 166.107 693.812 165.396 693.86 164.698C693.895 163.999 694.144 163.415 694.607 162.945C695.082 162.463 695.812 162.205 696.796 162.168C697.354 162.144 697.853 162.223 698.292 162.403C698.731 162.572 699.081 162.891 699.342 163.361C699.555 163.686 699.49 163.981 699.146 164.246C698.92 164.427 698.677 164.451 698.416 164.318C698.25 164.246 698.09 164.144 697.936 164.011C697.936 163.975 697.936 163.957 697.936 163.957C697.864 163.909 697.799 163.861 697.74 163.813C697.669 163.704 697.591 163.62 697.508 163.56C697.2 163.331 696.885 163.264 696.565 163.361C696.257 163.445 696.025 163.686 695.871 164.084C695.764 164.397 695.711 164.716 695.711 165.041C695.734 165.439 695.823 165.824 695.978 166.197C696.084 166.426 696.179 166.637 696.262 166.83C696.464 167.36 696.63 167.727 696.761 167.932C696.891 168.125 697.046 168.209 697.224 168.185C697.413 168.149 699.098 167.534 702.279 166.342C702.967 166.113 703.163 166.396 702.866 167.191ZM695.159 174.093C695.99 173.804 696.34 173.238 696.209 172.395C696.209 172.334 696.197 172.268 696.173 172.196C696.126 171.738 696.031 171.389 695.889 171.148C695.746 170.895 695.426 170.901 694.928 171.166C693.693 171.877 692.554 172.708 691.51 173.659C691.439 173.744 691.374 173.822 691.314 173.894C691.314 173.894 691.302 173.912 691.279 173.948C691.207 174.045 691.196 174.153 691.243 174.274C691.291 174.394 691.397 174.454 691.563 174.454C692.786 174.647 693.984 174.527 695.159 174.093Z"
        fill="black" />
</svg>