<?xml version="1.0" encoding="iso-8859-1"?>
<!-- Generator: Adobe Illustrator 19.0.0, SVG Export Plug-In . SVG Version: 6.00 Build 0)  -->
<svg version="1.1" id="Layer_1" xmlns="http://www.w3.org/2000/svg" xmlns:xlink="http://www.w3.org/1999/xlink" x="0px" y="0px"
	 viewBox="0 0 226.263 226.263" style="enable-background:new 0 0 226.263 226.263;" xml:space="preserve">
<g>
	<g>
		<g>
			<path d="M206.09,8.081H20.173C9.049,8.081,0,17.144,0,28.283v129.293c0,11.139,9.049,20.202,20.173,20.202H92.93v32.323H68.687
				v8.081h24.242h40.404h24.242v-8.081h-24.242v-32.323h72.757c11.123,0,20.173-9.063,20.173-20.202V28.283
				C226.263,17.144,217.213,8.081,206.09,8.081z M101.01,210.101v-32.323h24.242v32.323H101.01z M218.182,157.576
				c0,6.684-5.423,12.121-12.092,12.121h-72.757H92.929H20.173c-6.668,0-12.092-5.437-12.092-12.121V28.283
				c0-6.684,5.423-12.121,12.092-12.121H206.09c6.668,0,12.092,5.437,12.092,12.121V157.576z"/>
			<path d="M20.202,157.576h185.859V28.283H20.202V157.576z M28.283,36.364H197.98v113.131H28.283V36.364z"/>
			<path d="M186.169,92.827h-44.171c-1.614,0-3.074,0.961-3.711,2.444l-12.466,28.971l-18.742-78.508
				c-0.387-1.616-1.722-2.831-3.37-3.062c-1.643-0.251-3.267,0.568-4.082,2.02L72.54,92.827H41.008c-2.231,0-4.04,1.809-4.04,4.04
				s1.809,4.04,4.04,4.04h33.894c1.46,0,2.805-0.787,3.522-2.06l23.191-41.207l19.174,80.325c0.404,1.693,1.848,2.938,3.583,3.086
				c0.116,0.012,0.233,0.016,0.349,0.016c1.602,0,3.068-0.951,3.709-2.444l16.229-37.715h41.511c2.231,0,4.04-1.809,4.04-4.04
				C190.209,94.636,188.4,92.827,186.169,92.827z"/>
		</g>
	</g>
</g>
<g>
</g>
<g>
</g>
<g>
</g>
<g>
</g>
<g>
</g>
<g>
</g>
<g>
</g>
<g>
</g>
<g>
</g>
<g>
</g>
<g>
</g>
<g>
</g>
<g>
</g>
<g>
</g>
<g>
</g>
</svg>
